HIERARCHY
ROOT Hips
{
	OFFSET 0.000000 121.760803 0.000000
	CHANNELS 6 Xposition Yposition Zposition Xrotation Yrotation Zrotation 
	JOINT Spine
	{
		OFFSET 0.072000 7.257294 -0.789700
		CHANNELS 3 Xrotation Yrotation Zrotation
		JOINT Spine1
		{
			OFFSET 0.000000 12.508769 -0.658067
			CHANNELS 3 Xrotation Yrotation Zrotation
			JOINT Spine1_split
			{
				OFFSET 0.000000 12.508769 -0.658067
				CHANNELS 3 Xrotation Yrotation Zrotation
				JOINT Spine2
				{
					OFFSET 0.000000 12.508769 -0.658067
					CHANNELS 3 Xrotation Yrotation Zrotation
					JOINT Neck
					{
						OFFSET 0.000000 14.033295 7.520400
						CHANNELS 3 Xrotation Yrotation Zrotation
						JOINT Head
						{
							OFFSET 0.000000 8.198502 5.703100
							CHANNELS 3 Xrotation Yrotation Zrotation
							JOINT HeadTop_End
							{
								OFFSET 0.000000 17.760803 13.332701
								CHANNELS 3 Xrotation Yrotation Zrotation
								End Site
								{
									OFFSET 0.000000 0.000000 0.000000
								}
							}
						}
					}
					JOINT LeftShoulder
					{
						OFFSET 6.292450 5.785301 -0.669000
						CHANNELS 3 Xrotation Yrotation Zrotation
						JOINT LeftShoulder_split
						{
							OFFSET 6.292450 5.785301 -0.669000
							CHANNELS 3 Xrotation Yrotation Zrotation
							JOINT LeftArm
							{
								OFFSET 13.907140 -6.093903 1.965100
								CHANNELS 3 Xrotation Yrotation Zrotation
								JOINT LeftForeArm
								{
									OFFSET 34.140198 0.000000 0.000000
									CHANNELS 3 Xrotation Yrotation Zrotation
									JOINT LeftHand
									{
										OFFSET 40.960209 0.000000 0.000000
										CHANNELS 3 Xrotation Yrotation Zrotation
										JOINT LeftHandThumb1
										{
											OFFSET 10.006996 -7.170425 9.573125
											CHANNELS 3 Xrotation Yrotation Zrotation
											JOINT LeftHandThumb2
											{
												OFFSET 1.835007 -1.059448 1.059443
												CHANNELS 3 Xrotation Yrotation Zrotation
												JOINT LeftHandThumb3
												{
													OFFSET 2.112267 -1.219513 1.219518
													CHANNELS 3 Xrotation Yrotation Zrotation
													JOINT LeftHandThumb4
													{
														OFFSET 4.843811 -2.796570 2.796576
														CHANNELS 3 Xrotation Yrotation Zrotation
														End Site
														{
															OFFSET 0.000000 0.000000 0.000000
														}
													}
												}
											}
										}
										JOINT LeftHandIndex1
										{
											OFFSET 18.389847 -0.922348 4.596882
											CHANNELS 3 Xrotation Yrotation Zrotation
											JOINT LeftHandIndex2
											{
												OFFSET 4.711273 0.000000 0.000000
												CHANNELS 3 Xrotation Yrotation Zrotation
												JOINT LeftHandIndex3
												{
													OFFSET 2.886131 0.000000 0.000000
													CHANNELS 3 Xrotation Yrotation Zrotation
													JOINT LeftHandIndex4
													{
														OFFSET 6.145912 0.000000 0.000000
														CHANNELS 3 Xrotation Yrotation Zrotation
														End Site
														{
															OFFSET 0.000000 0.000000 0.000000
														}
													}
												}
											}
										}
										JOINT LeftHandMiddle1
										{
											OFFSET 18.013008 0.000000 0.000000
											CHANNELS 3 Xrotation Yrotation Zrotation
											JOINT LeftHandMiddle2
											{
												OFFSET 4.946693 0.000000 0.000000
												CHANNELS 3 Xrotation Yrotation Zrotation
												JOINT LeftHandMiddle3
												{
													OFFSET 3.342232 0.000000 0.000000
													CHANNELS 3 Xrotation Yrotation Zrotation
													JOINT LeftHandMiddle4
													{
														OFFSET 4.461754 0.000000 0.000000
														CHANNELS 3 Xrotation Yrotation Zrotation
														End Site
														{
															OFFSET 0.000000 0.000000 0.000000
														}
													}
												}
											}
										}
										JOINT LeftHandRing1
										{
											OFFSET 15.849892 -0.102921 -4.126150
											CHANNELS 3 Xrotation Yrotation Zrotation
											JOINT LeftHandRing2
											{
												OFFSET 3.527054 0.000000 0.000000
												CHANNELS 3 Xrotation Yrotation Zrotation
												JOINT LeftHandRing3
												{
													OFFSET 2.961098 0.000000 0.000000
													CHANNELS 3 Xrotation Yrotation Zrotation
													JOINT LeftHandRing4
													{
														OFFSET 4.927200 0.000000 0.000000
														CHANNELS 3 Xrotation Yrotation Zrotation
														End Site
														{
															OFFSET 0.000000 0.000000 0.000000
														}
													}
												}
											}
										}
										JOINT LeftHandPinky1
										{
											OFFSET 12.791824 -0.832031 -6.799156
											CHANNELS 3 Xrotation Yrotation Zrotation
											JOINT LeftHandPinky2
											{
												OFFSET 3.327133 0.000000 0.000000
												CHANNELS 3 Xrotation Yrotation Zrotation
												JOINT LeftHandPinky3
												{
													OFFSET 3.014900 0.000000 0.000000
													CHANNELS 3 Xrotation Yrotation Zrotation
													JOINT LeftHandPinky4
													{
														OFFSET 5.847786 0.000000 0.000000
														CHANNELS 3 Xrotation Yrotation Zrotation
														End Site
														{
															OFFSET 0.000000 0.000000 0.000000
														}
													}
												}
											}
										}
									}
								}
							}
						}
					}
					JOINT RightShoulder
					{
						OFFSET -6.292450 5.785301 -0.669000
						CHANNELS 3 Xrotation Yrotation Zrotation
						JOINT RightShoulder_split
						{
							OFFSET -6.292450 5.785301 -0.669000
							CHANNELS 3 Xrotation Yrotation Zrotation
							JOINT RightArm
							{
								OFFSET -13.907140 -6.093903 1.965100
								CHANNELS 3 Xrotation Yrotation Zrotation
								JOINT RightForeArm
								{
									OFFSET -34.140198 0.000000 0.000000
									CHANNELS 3 Xrotation Yrotation Zrotation
									JOINT RightHand
									{
										OFFSET -40.960209 0.000000 0.000000
										CHANNELS 3 Xrotation Yrotation Zrotation
										JOINT RightHandThumb1
										{
											OFFSET -10.007050 -7.170456 9.573117
											CHANNELS 3 Xrotation Yrotation Zrotation
											JOINT RightHandThumb2
											{
												OFFSET -1.835007 -1.059448 1.059443
												CHANNELS 3 Xrotation Yrotation Zrotation
												JOINT RightHandThumb3
												{
													OFFSET -2.112267 -1.219513 1.219518
													CHANNELS 3 Xrotation Yrotation Zrotation
													JOINT RightHandThumb4
													{
														OFFSET -4.843834 -2.796585 2.796590
														CHANNELS 3 Xrotation Yrotation Zrotation
														End Site
														{
															OFFSET 0.000000 0.000000 0.000000
														}
													}
												}
											}
										}
										JOINT RightHandIndex1
										{
											OFFSET -18.389870 -0.922424 4.596786
											CHANNELS 3 Xrotation Yrotation Zrotation
											JOINT RightHandIndex2
											{
												OFFSET -4.711273 0.000000 0.000000
												CHANNELS 3 Xrotation Yrotation Zrotation
												JOINT RightHandIndex3
												{
													OFFSET -2.886131 0.000000 0.000000
													CHANNELS 3 Xrotation Yrotation Zrotation
													JOINT RightHandIndex4
													{
														OFFSET -6.145920 0.000000 0.000000
														CHANNELS 3 Xrotation Yrotation Zrotation
														End Site
														{
															OFFSET 0.000000 0.000000 0.000000
														}
													}
												}
											}
										}
										JOINT RightHandMiddle1
										{
											OFFSET -18.013008 0.000000 0.000000
											CHANNELS 3 Xrotation Yrotation Zrotation
											JOINT RightHandMiddle2
											{
												OFFSET -4.946693 0.000000 0.000000
												CHANNELS 3 Xrotation Yrotation Zrotation
												JOINT RightHandMiddle3
												{
													OFFSET -3.342232 0.000000 0.000000
													CHANNELS 3 Xrotation Yrotation Zrotation
													JOINT RightHandMiddle4
													{
														OFFSET -4.461754 0.000000 0.000000
														CHANNELS 3 Xrotation Yrotation Zrotation
														End Site
														{
															OFFSET 0.000000 0.000000 0.000000
														}
													}
												}
											}
										}
										JOINT RightHandRing1
										{
											OFFSET -15.849876 -0.102936 -4.126237
											CHANNELS 3 Xrotation Yrotation Zrotation
											JOINT RightHandRing2
											{
												OFFSET -3.527054 0.000000 0.000000
												CHANNELS 3 Xrotation Yrotation Zrotation
												JOINT RightHandRing3
												{
													OFFSET -2.961098 0.000000 0.000000
													CHANNELS 3 Xrotation Yrotation Zrotation
													JOINT RightHandRing4
													{
														OFFSET -4.927200 0.000000 0.000000
														CHANNELS 3 Xrotation Yrotation Zrotation
														End Site
														{
															OFFSET 0.000000 0.000000 0.000000
														}
													}
												}
											}
										}
										JOINT RightHandPinky1
										{
											OFFSET -12.791786 -0.832077 -6.799222
											CHANNELS 3 Xrotation Yrotation Zrotation
											JOINT RightHandPinky2
											{
												OFFSET -3.327133 0.000000 0.000000
												CHANNELS 3 Xrotation Yrotation Zrotation
												JOINT RightHandPinky3
												{
													OFFSET -3.014900 0.000000 0.000000
													CHANNELS 3 Xrotation Yrotation Zrotation
													JOINT RightHandPinky4
													{
														OFFSET -5.847786 0.000000 0.000000
														CHANNELS 3 Xrotation Yrotation Zrotation
														End Site
														{
															OFFSET 0.000000 0.000000 0.000000
														}
													}
												}
											}
										}
									}
								}
							}
						}
					}
				}
			}
		}
	}
	JOINT LeftUpLeg
	{
		OFFSET 13.026900 -6.336304 -1.092800
		CHANNELS 3 Xrotation Yrotation Zrotation
		JOINT LeftLeg
		{
			OFFSET 0.524474 -46.096886 9.782700
			CHANNELS 3 Xrotation Yrotation Zrotation
			JOINT LeftFoot
			{
				OFFSET -0.524474 -53.427422 -12.948200
				CHANNELS 3 Xrotation Yrotation Zrotation
				JOINT LeftToeBase
				{
					OFFSET 0.192200 -14.009700 16.364100
					CHANNELS 3 Xrotation Yrotation Zrotation
					JOINT LeftToe_End
					{
						OFFSET -1.784700 -0.561700 9.474800
						CHANNELS 3 Xrotation Yrotation Zrotation
						End Site
						{
							OFFSET 0.000000 0.000000 0.000000
						}
					}
				}
			}
		}
	}
	JOINT RightUpLeg
	{
		OFFSET -12.883000 -6.336304 -1.092800
		CHANNELS 3 Xrotation Yrotation Zrotation
		JOINT RightLeg
		{
			OFFSET -0.524587 -46.096825 9.782800
			CHANNELS 3 Xrotation Yrotation Zrotation
			JOINT RightFoot
			{
				OFFSET 0.524587 -53.427383 -12.948300
				CHANNELS 3 Xrotation Yrotation Zrotation
				JOINT RightToeBase
				{
					OFFSET -0.192200 -14.009700 16.364100
					CHANNELS 3 Xrotation Yrotation Zrotation
					JOINT RightToe_End
					{
						OFFSET 1.784700 -0.561700 9.474800
						CHANNELS 3 Xrotation Yrotation Zrotation
						End Site
						{
							OFFSET 0.000000 0.000000 0.000000
						}
					}
				}
			}
		}
	}
}
MOTION
Frames: 4
Frame Time: 0.016667
0.781616 89.969261 -107.151245 36.249440 -69.387496 29.215933 0.867636 10.180679 -4.046017 -1.602552 6.808470 -2.710776 0.000000 0.000000 0.000000 -1.615873 2.233987 1.483569 13.856777 5.273892 -5.005349 3.706263 16.403027 6.692205 0.000001 0.000001 -0.000000 4.053402 5.979539 -12.991232 0.000000 0.000000 0.000000 -54.011609 -35.171673 -50.958566 -0.000282 -82.344774 -0.000271 -61.076877 33.044373 41.897746 -14.557461 10.837984 12.229965 0.749481 -4.258148 13.305417 -10.783704 -23.179382 -4.132407 -0.000003 0.000000 -0.000000 -0.809527 2.578152 -31.496441 3.095873 5.163792 -61.866966 0.503786 2.378652 -23.913134 0.000000 -0.000001 0.000001 -2.430844 1.729222 -41.460925 2.952345 5.084721 -60.259931 1.321765 3.707977 -39.227849 -0.000000 -0.000000 -0.000000 -6.054130 -0.166587 -49.857584 3.046247 5.137043 -61.313939 0.351712 2.001099 -19.935148 0.000001 -0.000001 0.000001 -8.298303 -6.522651 -38.520160 2.848771 5.024403 -59.084401 0.876775 3.084711 -31.727513 0.000001 -0.000001 -0.000000 -14.532554 3.553454 -4.417812 0.000000 0.000000 0.000000 79.542252 138.739092 -57.059769 -0.000009 34.452949 -0.000002 -53.561374 -12.490271 -34.496642 8.377125 -4.904145 11.021996 21.620197 -18.183905 -18.379213 -0.702854 -49.821210 -32.535138 -0.000001 -0.000001 -0.000000 0.558924 -4.406583 25.436659 1.653018 -3.560365 49.799104 1.737730 -3.630055 51.149224 -0.000000 -0.000000 0.000000 10.969812 -12.875581 52.800818 6.387583 -4.324407 111.833679 0.247372 -1.499120 18.739128 -0.000002 -0.000000 0.000003 3.705076 -7.151340 57.622440 5.328211 -4.608688 98.293430 1.627361 -3.538511 49.383996 -0.000000 0.000001 -0.000001 0.474815 -5.172981 58.987672 3.194314 -4.421934 71.674141 1.771415 -3.656902 51.679557 -0.000000 -0.000001 0.000003 -59.149206 -19.704893 24.303078 38.358356 -2.981817 9.728520 22.317387 0.810446 -9.339368 -4.706078 0.138739 -2.864980 -0.000002 0.000001 0.000003 -27.558510 7.965791 -23.726964 49.181617 -6.622385 -2.289981 -6.526749 -28.768221 34.741894 -1.798246 -0.000001 -0.000003 0.000000 0.000001 -0.000000 
1.350861 90.829300 -111.456924 34.988573 -68.452613 27.667389 0.824539 9.057922 -3.359371 -1.626987 6.164444 -2.467201 0.000000 0.000000 0.000000 -1.632767 1.585595 1.723309 13.644002 5.603232 -5.277998 3.496005 17.228932 6.531498 0.000002 -0.000003 0.000003 3.999909 6.042618 -12.807239 0.000000 0.000000 0.000000 -53.296038 -34.622977 -51.004444 -0.000025 -82.387791 -0.000021 -60.568226 31.239161 41.384167 -14.557462 10.837985 12.229961 0.749480 -4.258146 13.305419 -10.783709 -23.179382 -4.132405 0.000001 -0.000000 0.000001 -0.809528 2.578154 -31.496447 3.095874 5.163791 -61.866959 0.503787 2.378652 -23.913133 0.000000 0.000001 0.000001 -2.430844 1.729223 -41.460922 2.952346 5.084721 -60.259931 1.321765 3.707977 -39.227853 0.000000 0.000001 -0.000000 -6.054130 -0.166586 -49.857587 3.046246 5.137042 -61.313939 0.351713 2.001099 -19.935154 0.000001 0.000000 -0.000000 -8.298302 -6.522652 -38.520156 2.848770 5.024402 -59.084408 0.876776 3.084708 -31.727513 -0.000001 -0.000000 0.000001 -14.624217 3.283240 -4.768788 0.000000 0.000000 0.000000 77.652680 137.993495 -55.679914 -0.000015 33.172221 0.000019 -53.616261 -11.197042 -33.722686 8.377125 -4.904148 11.021994 21.620192 -18.183907 -18.379213 -0.702851 -49.821206 -32.535135 -0.000002 0.000001 0.000000 0.558924 -4.406583 25.436658 1.653018 -3.560366 49.799100 1.737731 -3.630055 51.149231 -0.000000 -0.000000 0.000000 10.969812 -12.875581 52.800815 6.387584 -4.324409 111.833679 0.247370 -1.499119 18.739128 0.000001 0.000000 -0.000003 3.705075 -7.151341 57.622433 5.328209 -4.608688 98.293430 1.627359 -3.538511 49.383992 0.000001 -0.000000 0.000001 0.474815 -5.172981 58.987679 3.194314 -4.421935 71.674141 1.771416 -3.656902 51.679561 0.000000 0.000000 -0.000002 -60.251257 -18.469356 23.263010 36.002453 -2.689252 9.633540 24.799761 0.497558 -7.803933 -3.578731 0.235834 -3.763885 -0.000002 -0.000000 -0.000000 -29.830175 6.249581 -23.544675 51.229830 -7.961520 0.359235 -8.586835 -26.293776 34.192777 -1.541028 0.000037 -0.000010 0.000000 -0.000001 0.000000 
1.931229 91.723740 -115.499039 33.827079 -67.426132 26.006695 0.807935 8.049826 -2.465074 -1.619448 5.518449 -2.231737 0.000000 0.000000 0.000000 -1.616521 0.925566 1.956717 13.288393 5.956510 -5.383662 2.808269 18.062150 6.550446 0.000003 -0.000001 0.000000 3.900271 5.904413 -12.522482 0.000000 0.000000 0.000000 -52.948682 -33.982807 -50.979852 0.000365 -82.394068 0.000366 -59.827444 29.409138 40.747023 -14.557459 10.837982 12.229966 0.749477 -4.258143 13.305418 -10.783708 -23.179381 -4.132406 0.000002 0.000000 -0.000001 -0.809528 2.578154 -31.496447 3.095875 5.163791 -61.866959 0.503789 2.378651 -23.913138 -0.000001 0.000001 -0.000001 -2.430842 1.729222 -41.460922 2.952346 5.084721 -60.259931 1.321766 3.707978 -39.227853 0.000000 -0.000000 0.000000 -6.054129 -0.166587 -49.857587 3.046245 5.137043 -61.313939 0.351714 2.001099 -19.935147 -0.000000 0.000000 -0.000000 -8.298302 -6.522652 -38.520160 2.848769 5.024402 -59.084401 0.876775 3.084713 -31.727513 0.000000 -0.000001 0.000000 -14.701919 3.010195 -5.023190 0.000000 0.000000 0.000000 75.541127 137.547702 -54.314648 0.000017 31.733168 0.000003 -53.365006 -9.666784 -32.827604 8.377125 -4.904148 11.021989 21.620194 -18.183905 -18.379216 -0.702864 -49.821203 -32.535131 0.000003 -0.000003 -0.000002 0.558924 -4.406583 25.436656 1.653018 -3.560365 49.799107 1.737731 -3.630054 51.149231 0.000001 0.000000 -0.000000 10.969812 -12.875581 52.800815 6.387583 -4.324411 111.833686 0.247372 -1.499119 18.739123 -0.000000 -0.000002 0.000002 3.705076 -7.151340 57.622440 5.328209 -4.608687 98.293430 1.627360 -3.538511 49.383992 0.000000 -0.000000 -0.000001 0.474815 -5.172981 58.987672 3.194315 -4.421935 71.674141 1.771416 -3.656901 51.679557 0.000001 0.000000 -0.000003 -62.090285 -16.837784 21.658456 35.027703 -2.414534 9.668720 25.518987 -0.123368 -7.607961 -2.706022 0.137176 -2.898931 -0.000001 -0.000002 -0.000002 -31.600953 3.983958 -23.863513 52.658238 -9.540151 3.418403 -10.426398 -22.890841 33.579290 -1.156845 0.000009 0.000001 -0.000000 0.000000 0.000000 
2.419815 92.459518 -119.296799 33.091788 -66.559825 24.793344 0.828902 7.280285 -1.692053 -1.604752 4.974514 -2.071097 0.000000 0.000000 0.000000 -1.594768 0.362932 2.116386 12.920236 6.278302 -5.327309 1.884702 18.797649 6.755084 0.000001 -0.000001 -0.000000 3.777933 5.614928 -12.196081 0.000000 0.000000 0.000000 -52.876483 -33.357141 -50.874497 0.000199 -82.402879 0.000212 -59.121168 27.942179 40.166662 -14.557457 10.837982 12.229962 0.749481 -4.258146 13.305416 -10.783709 -23.179381 -4.132410 -0.000001 0.000000 0.000001 -0.809526 2.578154 -31.496447 3.095876 5.163792 -61.866959 0.503787 2.378653 -23.913127 0.000000 0.000001 -0.000001 -2.430842 1.729224 -41.460928 2.952346 5.084720 -60.259931 1.321765 3.707977 -39.227853 0.000000 0.000001 -0.000000 -6.054129 -0.166585 -49.857584 3.046245 5.137041 -61.313946 0.351714 2.001099 -19.935145 0.000000 -0.000000 0.000001 -8.298302 -6.522650 -38.520156 2.848769 5.024406 -59.084401 0.876775 3.084714 -31.727513 -0.000001 0.000001 -0.000000 -14.751598 2.757351 -5.115945 0.000000 0.000000 0.000000 73.753974 137.448118 -53.227661 0.000006 30.448850 -0.000004 -52.877883 -8.315547 -32.047760 8.377125 -4.904148 11.021993 21.620195 -18.183905 -18.379213 -0.702854 -49.821210 -32.535125 -0.000001 -0.000001 -0.000000 0.558924 -4.406582 25.436659 1.653018 -3.560366 49.799111 1.737731 -3.630055 51.149224 0.000001 0.000001 0.000000 10.969812 -12.875580 52.800815 6.387583 -4.324409 111.833686 0.247372 -1.499119 18.739124 0.000002 0.000002 -0.000001 3.705077 -7.151342 57.622440 5.328210 -4.608688 98.293430 1.627360 -3.538512 49.383992 -0.000000 -0.000001 0.000000 0.474815 -5.172981 58.987672 3.194314 -4.421934 71.674141 1.771414 -3.656901 51.679561 0.000001 -0.000001 0.000003 -64.606718 -15.066019 19.474005 36.262810 -2.257386 9.792630 24.528055 -0.759023 -8.592328 -1.446129 0.040208 -1.591983 0.000000 -0.000004 -0.000001 -34.095440 1.115359 -22.706735 54.261724 -9.606229 3.857258 -12.059578 -21.664192 30.797962 -1.155752 -0.000006 0.000007 0.000000 -0.000000 -0.000000 
